<svg xmlns="http://www.w3.org/2000/svg" width="12" height="12" viewBox="0 0 12 12">
    <g fill="none" fill-rule="evenodd">
        <g fill="#F5F5F5">
            <g>
                <path d="M20.123.004l-.16.004-.245.01.245-.01c-.13.004-.26.01-.388.016l.143-.007c-.128.006-.256.013-.383.021l.24-.014c-.155.008-.31.018-.463.03-.11.009-.218.018-.327.029l.327-.029c-.123.01-.246.02-.369.033l.042-.004c-.137.013-.274.028-.41.045l.368-.041c-.137.014-.274.029-.41.046l.042-.005C18.1.16 17.83.2 17.56.246l-.156.027.156-.027c-.133.022-.264.046-.395.071l.24-.044c-.12.021-.24.044-.36.068l.12-.024c-.42.081-.833.177-1.24.287-.041.01-.081.022-.122.033l.122-.033c-.397.107-.787.227-1.172.36l-.134.048.134-.047c-.386.134-.766.281-1.139.441l-.157.068.157-.068c-.269.115-.534.237-.796.365l-.09.045.09-.045c-.124.06-.247.123-.37.187l.28-.142c-.12.059-.237.119-.354.18l.074-.038c-.093.048-.186.097-.278.147l.204-.109c-.118.062-.235.126-.352.19l-.32.182c-.109.064-.217.128-.324.194l-.066.04.066-.04-.273.17.207-.13c-.112.07-.224.14-.334.212l.127-.082c-.138.088-.275.178-.41.27l.283-.188c-.121.079-.241.159-.36.24l.077-.052c-.458.31-.9.641-1.325.992l.073-.06c-1.96 1.598-3.566 3.613-4.685 5.91l-.013.025c-.051.107-.102.213-.151.32l-.07.153.07-.152c-.066.142-.13.286-.191.43l.122-.278c-.063.14-.124.281-.184.423l-.125.308.125-.308c-.056.135-.11.271-.164.408l.04-.1c-.11.277-.213.558-.308.842l-.042.124.042-.124c-.198.587-.365 1.187-.5 1.8l-.025.115.025-.115c-.03.134-.058.27-.084.406l.059-.291c-.029.136-.056.272-.082.409l.023-.118c-.059.297-.11.596-.152.898l-.025.182.025-.182c-.046.328-.084.658-.112.991l-.008.097.008-.097c-.041.491-.062.988-.062 1.49 0-.469.018-.934.054-1.393l.008-.097c.023-.271.052-.54.087-.809l.025-.182c.037-.262.08-.522.129-.78l.023-.118c.019-.098.038-.195.059-.291l.025-.115c.126-.57.279-1.129.458-1.676l.042-.124c.084-.25.173-.497.268-.742l.04-.1c.04-.103.082-.206.124-.308l.062-.145c.04-.093.08-.186.122-.278l.069-.152.031-.068.12-.253.018.019C4.48 9.602 4.213 9.302 3.95 9 2.021 6.788.699 4.045.22 1.015c2.586 1.848 5.737 2.95 9.151 2.979l.073-.06c.379-.31.77-.603 1.175-.88l.077-.052c.093-.063.187-.126.283-.188l.127-.082.207-.13.066-.04c.212-.13.427-.255.644-.376l.035-.019.113-.062.204-.109.074-.038c.093-.049.186-.096.28-.142l.09-.045c.21-.103.424-.202.64-.297l.156-.068c.33-.141.665-.273 1.005-.394l.134-.047c.346-.12.696-.23 1.05-.328l.122-.033c.368-.1.742-.188 1.12-.263l.12-.024.24-.044c.051-.01.103-.019.155-.027.255-.044.512-.081.771-.113l.043-.005c.122-.015.245-.029.368-.041l.042-.004.327-.029.223-.016.24-.014.143-.007.245-.009.16-.004c.125-.003.25-.004.377-.004l-.377.004z" transform="translate(-39.000000, -499.000000) translate(39.000000, 499.000000)"/>
            </g>
        </g>
    </g>
</svg>
